HIERARCHY
ROOT Hips
{
    OFFSET   0.000000   0.000000   0.000000
    CHANNELS 6 Xposition Yposition Zposition Zrotation Xrotation Yrotation
    JOINT Chest
    {
        OFFSET   0.000000   8.007230   0.000000
        CHANNELS 3 Zrotation Xrotation Yrotation
        JOINT Chest2
        {
            OFFSET   0.000000  22.077100   0.000000
            CHANNELS 3 Zrotation Xrotation Yrotation
            JOINT Neck
            {
                OFFSET   0.000000  23.254800  -0.000021
                CHANNELS 3 Zrotation Xrotation Yrotation
                JOINT Head
                {
                    OFFSET   0.000000  14.370000   1.956610
                    CHANNELS 3 Zrotation Xrotation Yrotation
                    End Site
                    {
                        OFFSET   0.000000  19.566000   0.000000
                    }
                }
            }
            JOINT LeftCollar
            {
                OFFSET   3.911900  19.017000  -0.467063
                CHANNELS 3 Zrotation Xrotation Yrotation
                JOINT LeftShoulder
                {
                    OFFSET  10.383700   0.000000   0.000000
                    CHANNELS 3 Zrotation Xrotation Yrotation
                    JOINT LeftElbow
                    {
                        OFFSET  26.662100   0.001529   0.000325
                        CHANNELS 3 Zrotation Xrotation Yrotation
                        JOINT LeftWrist
                        {
                            OFFSET  28.869000  -0.000011  -0.000096
                            CHANNELS 3 Zrotation Xrotation Yrotation
                            JOINT LeftFinger0
                            {
                                OFFSET   2.044650  -2.323460   3.252850
                                CHANNELS 3 Zrotation Xrotation Yrotation
                                JOINT LeftFinger01
                                {
                                    OFFSET   3.088130   0.000000   0.000000
                                    CHANNELS 3 Zrotation Xrotation Yrotation
                                    JOINT LeftFinger02
                                    {
                                        OFFSET   2.639460   0.000000   0.000000
                                        CHANNELS 3 Zrotation Xrotation Yrotation
                                        End Site
                                        {
                                            OFFSET   2.582190   0.000000   0.000000
                                        }
                                    }
                                }
                            }
                            JOINT LeftFinger1
                            {
                                OFFSET   8.364480   0.000000   3.252850
                                CHANNELS 3 Zrotation Xrotation Yrotation
                                JOINT LeftFinger11
                                {
                                    OFFSET   4.646930   0.000000   0.000000
                                    CHANNELS 3 Zrotation Xrotation Yrotation
                                    JOINT LeftFinger12
                                    {
                                        OFFSET   2.323460   0.000000   0.000000
                                        CHANNELS 3 Zrotation Xrotation Yrotation
                                        End Site
                                        {
                                            OFFSET   2.273050   0.000000   0.000000
                                        }
                                    }
                                }
                            }
                            JOINT LeftFinger2
                            {
                                OFFSET   8.364480   0.000016   1.078090
                                CHANNELS 3 Zrotation Xrotation Yrotation
                                JOINT LeftFinger21
                                {
                                    OFFSET   5.111620   0.000000   0.000000
                                    CHANNELS 3 Zrotation Xrotation Yrotation
                                    JOINT LeftFinger22
                                    {
                                        OFFSET   2.788160   0.000017   0.000000
                                        CHANNELS 3 Zrotation Xrotation Yrotation
                                        End Site
                                        {
                                            OFFSET   2.727660   0.000000   0.000000
                                        }
                                    }
                                }
                            }
                            JOINT LeftFinger3
                            {
                                OFFSET   7.899780   0.000015  -1.078090
                                CHANNELS 3 Zrotation Xrotation Yrotation
                                JOINT LeftFinger31
                                {
                                    OFFSET   4.646920   0.000000   0.000000
                                    CHANNELS 3 Zrotation Xrotation Yrotation
                                    JOINT LeftFinger32
                                    {
                                        OFFSET   2.323470   0.000000   0.000000
                                        CHANNELS 3 Zrotation Xrotation Yrotation
                                        End Site
                                        {
                                            OFFSET   2.273050   0.000000   0.000000
                                        }
                                    }
                                }
                            }
                            JOINT LeftFinger4
                            {
                                OFFSET   7.435090   0.000000  -3.252850
                                CHANNELS 3 Zrotation Xrotation Yrotation
                                JOINT LeftFinger41
                                {
                                    OFFSET   3.717550   0.000000   0.000000
                                    CHANNELS 3 Zrotation Xrotation Yrotation
                                    JOINT LeftFinger42
                                    {
                                        OFFSET   1.858760   0.000000   0.000000
                                        CHANNELS 3 Zrotation Xrotation Yrotation
                                        End Site
                                        {
                                            OFFSET   1.818440   0.000000   0.000000
                                        }
                                    }
                                }
                            }
                        }
                    }
                }
            }
            JOINT RightCollar
            {
                OFFSET  -3.911900  19.017000  -0.467062
                CHANNELS 3 Zrotation Xrotation Yrotation
                JOINT RightShoulder
                {
                    OFFSET -10.383700   0.000015   0.000000
                    CHANNELS 3 Zrotation Xrotation Yrotation
                    JOINT RightElbow
                    {
                        OFFSET -26.662100   0.001341   0.000385
                        CHANNELS 3 Zrotation Xrotation Yrotation
                        JOINT RightWrist
                        {
                            OFFSET -28.869000   0.000025  -0.000080
                            CHANNELS 3 Zrotation Xrotation Yrotation
                            JOINT RightFinger0
                            {
                                OFFSET  -2.044650  -2.323490   3.252850
                                CHANNELS 3 Zrotation Xrotation Yrotation
                                JOINT RightFinger01
                                {
                                    OFFSET  -3.088130   0.000000   0.000000
                                    CHANNELS 3 Zrotation Xrotation Yrotation
                                    JOINT RightFinger02
                                    {
                                        OFFSET  -2.639460   0.000000   0.000000
                                        CHANNELS 3 Zrotation Xrotation Yrotation
                                        End Site
                                        {
                                            OFFSET  -2.582190   0.000000   0.000000
                                        }
                                    }
                                }
                            }
                            JOINT RightFinger1
                            {
                                OFFSET  -8.364480   0.000000   3.252850
                                CHANNELS 3 Zrotation Xrotation Yrotation
                                JOINT RightFinger11
                                {
                                    OFFSET  -4.646930   0.000000   0.000000
                                    CHANNELS 3 Zrotation Xrotation Yrotation
                                    JOINT RightFinger12
                                    {
                                        OFFSET  -2.323470   0.000000   0.000000
                                        CHANNELS 3 Zrotation Xrotation Yrotation
                                        End Site
                                        {
                                            OFFSET  -2.273050   0.000000   0.000000
                                        }
                                    }
                                }
                            }
                            JOINT RightFinger2
                            {
                                OFFSET  -8.364480   0.000000   1.078090
                                CHANNELS 3 Zrotation Xrotation Yrotation
                                JOINT RightFinger21
                                {
                                    OFFSET  -5.111610   0.000000   0.000000
                                    CHANNELS 3 Zrotation Xrotation Yrotation
                                    JOINT RightFinger22
                                    {
                                        OFFSET  -2.788160   0.000000   0.000000
                                        CHANNELS 3 Zrotation Xrotation Yrotation
                                        End Site
                                        {
                                            OFFSET  -2.727660   0.000000   0.000000
                                        }
                                    }
                                }
                            }
                            JOINT RightFinger3
                            {
                                OFFSET  -7.899780   0.000000  -1.078090
                                CHANNELS 3 Zrotation Xrotation Yrotation
                                JOINT RightFinger31
                                {
                                    OFFSET  -4.646920   0.000000   0.000000
                                    CHANNELS 3 Zrotation Xrotation Yrotation
                                    JOINT RightFinger32
                                    {
                                        OFFSET  -2.323470   0.000000   0.000000
                                        CHANNELS 3 Zrotation Xrotation Yrotation
                                        End Site
                                        {
                                            OFFSET  -2.273050   0.000000   0.000000
                                        }
                                    }
                                }
                            }
                            JOINT RightFinger4
                            {
                                OFFSET  -7.435090   0.000000  -3.252850
                                CHANNELS 3 Zrotation Xrotation Yrotation
                                JOINT RightFinger41
                                {
                                    OFFSET  -3.717550   0.000000   0.000000
                                    CHANNELS 3 Zrotation Xrotation Yrotation
                                    JOINT RightFinger42
                                    {
                                        OFFSET  -1.858770   0.000000   0.000000
                                        CHANNELS 3 Zrotation Xrotation Yrotation
                                        End Site
                                        {
                                            OFFSET  -1.818440   0.000000   0.000000
                                        }
                                    }
                                }
                            }
                        }
                    }
                }
            }
        }
    }
    JOINT LeftHip
    {
        OFFSET   9.783010   0.000000   0.000000
        CHANNELS 3 Zrotation Xrotation Yrotation
        JOINT LeftKnee
        {
            OFFSET   0.000070 -41.789100   0.000028
            CHANNELS 3 Zrotation Xrotation Yrotation
            JOINT LeftAnkle
            {
                OFFSET   0.000087 -41.133200  -0.000100
                CHANNELS 3 Zrotation Xrotation Yrotation
                JOINT LeftToe
                {
                    OFFSET   0.000000  -6.358960  14.674500
                    CHANNELS 3 Zrotation Xrotation Yrotation
                    End Site
                    {
                        OFFSET   0.000000   0.000000   3.913200
                    }
                }
            }
        }
    }
    JOINT RightHip
    {
        OFFSET  -9.783020   0.000000   0.000000
        CHANNELS 3 Zrotation Xrotation Yrotation
        JOINT RightKnee
        {
            OFFSET   0.000044 -41.789100  -0.000870
            CHANNELS 3 Zrotation Xrotation Yrotation
            JOINT RightAnkle
            {
                OFFSET  -0.000090 -41.133200  -0.000245
                CHANNELS 3 Zrotation Xrotation Yrotation
                JOINT RightToe
                {
                    OFFSET   0.000000  -6.358960  14.674500
                    CHANNELS 3 Zrotation Xrotation Yrotation
                    End Site
                    {
                        OFFSET   0.000000   0.000000   3.913200
                    }
                }
            }
        }
    }
}
MOTION
Frames: 6
Frame Time:   0.016667
  0.756111  90.087600   1.258080  -1.581130  -3.322320  -2.590480  -0.041888   2.737630   0.089132  -0.088079   5.475210   0.180646   1.217790  -2.066580   0.042780   2.018970  -4.184660  11.697700  -1.447890  -0.130934   4.343190 -75.374700  18.031700  -0.736314  -3.450720  -7.943240 -16.284300  15.302400   5.462770   7.878720  41.927000  34.374800 -71.562800 -25.667600  -0.006225  -0.002909  -7.833810  -0.004164  -0.007730 -33.544700   7.151150 -10.632100 -27.994000   0.016204   0.006028 -19.595800   0.011174   0.004635 -29.599700   2.883440  -5.060640 -44.590500  -0.002150  -0.001196 -29.697300   0.001785  -0.000771 -28.390700   2.775960  -5.120300 -36.319300   0.003265   0.000441 -24.188600   0.000147  -0.003286 -34.287500   0.401384  -0.588799 -51.434400  -0.001891   0.000730 -34.255400  -0.001238   0.001837   5.086200  -0.028764   3.553530  75.596800  10.334700  -3.531400   1.751150  -4.650260  17.417200 -16.953500 -12.254600   6.362510 -36.654100  33.192300  68.343500  33.622400  -0.001661  -0.002760  11.811200  -0.007107   0.005513  37.288100   3.838020   5.030620  30.645300  -0.001870  -0.002982  21.451700  -0.002841  -0.002034  29.368000  -2.324020  -4.131490  44.182900   0.001003  -0.007037  29.425800  -0.005634   0.001941  30.648700  -2.416650  -4.078060  46.104300  -0.010200  -0.004817  30.705500  -0.003480  -0.002394  45.531000  -3.380290  -3.323770  68.449600  -0.002088   0.006149  45.587400  -0.001471   0.005175   0.342107   5.700960   2.587190   0.082496   0.025100  11.878900  -3.969600  -4.833560   5.939700  -0.000000   0.000000  -0.000000   1.508580   4.131390  -8.629020  -0.640402   2.830630  -4.908580  -8.585530  -0.084184   2.133610  -0.000000   0.000000  -0.000000
  0.768736  90.036600   1.324300  -1.578130  -3.319980  -2.508770  -0.037605   2.677400   0.081731  -0.079158   5.354770   0.165509   1.235270  -1.580130   0.033396   2.033060  -3.200140  11.806000  -1.482720  -0.055245   4.389420 -75.454300  18.082300  -0.860280  -3.404900  -7.968370 -16.196700  15.287800   5.444350   7.824140  42.073000  34.424500 -71.655100 -25.522200  -0.006243  -0.002916  -7.761100  -0.004288  -0.005146 -33.508300   7.223170 -10.752600 -27.972700   0.002228   0.000913 -19.580900   0.001539   0.000656 -29.627500   2.939500  -5.152700 -44.639500  -0.002350  -0.001369 -29.729900   0.001781  -0.000876 -28.390600   2.827530  -5.214900 -36.372100  -0.001827   0.000386 -24.223800   0.000502  -0.003240 -34.339100   0.389779  -0.570777 -51.511600  -0.006279  -0.001247 -34.306700  -0.004067   0.001678   5.086410   0.059217   3.537680  75.605700  10.347500  -3.457700   1.712710  -4.695670  17.357900 -17.028900 -12.169300   6.379750 -36.688600  33.093300  68.270700  33.484900  -0.001998  -0.002873  11.742400  -0.006637   0.005852  37.258700   3.942290   5.164730  30.629900  -0.002306  -0.003245  21.440900  -0.003116  -0.002212  29.375500  -2.257780  -4.003150  44.181700   0.000383  -0.007555  29.425000  -0.005884   0.001957  30.651700  -2.346430  -3.951890  46.098900  -0.010778  -0.004689  30.701900  -0.003929  -0.002370  45.540000  -3.283240  -3.216610  68.448200  -0.002196   0.006207  45.586500  -0.001565   0.005306   0.347596   5.699080   2.551210   0.079269   0.048998  11.892400  -3.991060  -4.863760   5.876510  -0.000000   0.000000  -0.000000   1.488250   4.258340  -8.632100  -0.571951   2.659350  -4.969620  -8.589680  -0.028970   2.117300  -0.000000   0.000000   0.000000
  0.780669  89.984900   1.395330  -1.575780  -3.348850  -2.443480  -0.019782   2.597510   0.069630  -0.042883   5.195000   0.140331   1.209880  -0.878157   0.016408   1.988570  -1.778310  11.924100  -1.531250  -0.002044   4.446820 -75.585100  18.044700  -0.854152  -3.352450  -7.820680 -16.192100  15.284800   5.394310   7.760110  42.204600  34.487100 -71.780100 -25.399000  -0.006028  -0.002329  -7.699510  -0.004491  -0.002967 -33.485700   7.283660 -10.845800 -27.967400   0.002734   0.000610 -19.577100   0.001513   0.000475 -29.674600   2.987730  -5.227690 -44.716500  -0.002542  -0.001539 -29.781200   0.001773  -0.000977 -28.394600   2.870170  -5.292170 -36.466200  -0.001741   0.000327 -24.286500   0.001020  -0.003195 -34.419900   0.371477  -0.542563 -51.632500  -0.005296  -0.001601 -34.387200  -0.003480   0.001379   5.079530   0.137396   3.523690  75.614500  10.257100  -3.488590   1.622770  -4.553870  17.380700 -17.174200 -12.343200   6.407520 -36.679200  33.013200  68.222900  33.416100  -0.002344  -0.002949  11.708000  -0.006146   0.006175  37.300100   3.985290   5.203070  30.667800  -0.002824  -0.003568  21.467400  -0.003351  -0.002429  29.432200  -2.251650  -3.970930  44.265300  -0.001202  -0.008048  29.480700  -0.006133   0.001970  30.702300  -2.338690  -3.920360  46.173200  -0.011362  -0.004557  30.751400  -0.004329  -0.002344  45.629700  -3.272860  -3.182930  68.580300  -0.002300   0.006208  45.674500  -0.001644   0.005410   0.354132   5.718370   2.510510   0.067665   0.099066  11.912900  -3.995600  -4.897690   5.823170  -0.000000   0.000000  -0.000000   1.489760   4.377530  -8.588500  -0.532455   2.550410  -5.080940  -8.602960  -0.005901   2.113880  -0.000000   0.000000   0.000000
  0.790597  89.935100   1.465600  -1.575540  -3.416820  -2.390410   0.006306   2.509570   0.054615   0.010234   5.019120   0.109103   1.136340   0.079650  -0.003831   1.870620   0.161326  11.993700  -1.563790   0.052439   4.504900 -75.747900  17.914500  -0.811945  -3.264390  -7.525750 -16.189800  15.277900   5.341750   7.690260  42.274000  34.532400 -71.858000 -25.296400  -0.005593  -0.001742  -7.648190  -0.004659  -0.000934 -33.469400   7.325850 -10.916400 -27.957600   0.003769   0.000508 -19.570300   0.001509   0.000417 -29.730100   3.025120  -5.280070 -44.804500  -0.002730  -0.001707 -29.839800   0.001757  -0.001075 -28.400700   2.901800  -5.348770 -36.573500  -0.001525   0.000264 -24.358000   0.001660  -0.003151 -34.513000   0.350346  -0.510098 -51.771800  -0.003598  -0.001712 -34.480000  -0.002459   0.001097   5.072550   0.218598   3.499280  75.626700  10.069100  -3.536430   1.490300  -4.299870  17.445700 -17.345600 -12.623400   6.437240 -36.684700  32.973800  68.201400  33.379400  -0.002710  -0.003003  11.689700  -0.005645   0.006479  37.379300   3.993230   5.208560  30.731800  -0.003129  -0.003760  21.512300  -0.003540  -0.002558  29.525000  -2.250780  -3.966330  44.404800  -0.003194  -0.008581  29.573600  -0.006379   0.001980  30.786100  -2.337580  -3.915850  46.299300  -0.011954  -0.004423  30.835400  -0.004867  -0.002317  45.777900  -3.271380  -3.178120  68.803200  -0.002703   0.006208  45.823000  -0.001942   0.005457   0.356344   5.773450   2.481510   0.059167   0.134337  11.926600  -3.996310  -4.918770   5.795970  -0.000000   0.000000   0.000000   1.500170   4.491630  -8.527360  -0.517345   2.507550  -5.192360  -8.622640  -0.002168   2.110450  -0.000000   0.000000  -0.000000
  0.796359  89.890200   1.528580  -1.576960  -3.511280  -2.351780   0.032075   2.418960   0.039053   0.062593   4.837940   0.076854   1.014820   1.365710  -0.027880   1.678890   2.767610  12.003500  -1.564120   0.128940   4.541150 -75.962300  17.660900  -0.694883  -3.173170  -7.177190 -16.283000  15.243400   5.328020   7.620820  42.339400  34.546800 -71.817500 -25.214600  -0.005076  -0.001889  -7.607300  -0.004797   0.000619 -33.430800   7.340760 -10.961400 -27.925100   0.005019   0.000297 -19.547600   0.001703   0.000310 -29.784900   3.045610  -5.299850 -44.888700  -0.002919  -0.001873 -29.895900   0.001728  -0.001174 -28.407600   2.916150  -5.373040 -36.670900  -0.001170   0.000192 -24.422900   0.002376  -0.003103 -34.605600   0.329242  -0.477774 -51.910500  -0.002012  -0.001916 -34.572400  -0.001509   0.000835   5.071620   0.315192   3.450710  75.660400   9.831370  -3.568320   1.340360  -4.044280  17.549300 -17.508200 -12.835800   6.453820 -36.708200  32.976000  68.201200  33.354400  -0.002952  -0.003051  11.677200  -0.005143   0.006761  37.444800   3.992450   5.200010  30.785100   0.002505   0.003168  21.549600  -0.003683   0.002074  29.598400  -2.264690  -3.982090  44.516000  -0.005298  -0.009242  29.647700  -0.006624   0.001987  30.855500  -2.351660  -3.931400  46.404800  -0.012458  -0.004289  30.905600  -0.005681  -0.002286  45.898900  -3.291170  -3.187320  68.986100  -0.008569   0.006149  45.944800  -0.005954   0.005453   0.344568   5.845140   2.476770   0.062545   0.132040  11.906800  -3.978780  -4.900110   5.801140  -0.000000   0.000000  -0.000000   1.534340   4.590190  -8.503500  -0.538310   2.552250  -5.253500  -8.641480  -0.038108   2.092450   0.000000   0.000000   0.000000
  0.798635  89.850900   1.584630  -1.579080  -3.633560  -2.322520   0.056996   2.338590   0.021154   0.113279   4.677230   0.040017   0.847925   2.806750  -0.042486   1.406450   5.687830  12.018300  -1.545040   0.213716   4.579710 -76.204100  17.341600  -0.542842  -3.075590  -6.781850 -16.470600  15.223400   5.300300   7.561450  42.450900  34.574800 -71.751300 -25.176100  -0.004476  -0.002035  -7.588050  -0.004903   0.002020 -33.376500   7.342630 -10.978300 -27.886300   0.006456   0.000081 -19.520400   0.002112   0.000208 -29.842300   3.052030  -5.302690 -44.975800  -0.003108  -0.002038 -29.953900   0.001683  -0.001270 -28.415200   2.919050  -5.377040 -36.770900  -0.000785   0.000121 -24.489400   0.003133  -0.003060 -34.699700   0.307746  -0.444990 -52.051400  -0.000564  -0.002104 -34.666300  -0.000599   0.000588   5.076430   0.412572   3.391990  75.707000   9.567580  -3.593510   1.183670  -3.798410  17.695000 -17.684800 -13.017900   6.470140 -36.717500  32.986300  68.196000  33.346700  -0.003531  -0.003075  11.673400  -0.004645   0.007015  37.512100   3.986790   5.175150  30.839400   0.008139   0.010096  21.587600  -0.003747   0.006767  29.672100  -2.295140  -4.020550  44.629600  -0.007352  -0.009930  29.723300  -0.006867   0.001990  30.925800  -2.382610  -3.969370  46.513300  -0.013170  -0.004154  30.977800  -0.006868  -0.002252  46.022300  -3.334640  -3.212190  69.174400  -0.016467   0.006016  46.070200  -0.011215   0.005425   0.318290   5.986110   2.476680   0.068883   0.115913  11.862900  -3.950980  -4.881330   5.820250  -0.000000   0.000000  -0.000000   1.582660   4.690650  -8.497200  -0.582238   2.645110  -5.276500  -8.658230  -0.107572   2.051790   0.000000   0.000000  -0.000000
